<?xml version="1.0" encoding="utf-8"?>
<!-- Generator: Adobe Illustrator 19.0.0, SVG Export Plug-In . SVG Version: 6.00 Build 0)  -->
<svg version="1.1" id="Layer_1" xmlns="http://www.w3.org/2000/svg" xmlns:xlink="http://www.w3.org/1999/xlink" x="0px" y="0px"
	 viewBox="0 0 65 65" style="enable-background:new 0 0 65 65;" xml:space="preserve">
<style type="text/css">
	.st0{fill:none;stroke:#FFFFFF;stroke-linecap:round;stroke-linejoin:round;stroke-miterlimit:10;}
</style>
<g id="XMLID_12_">
	<path id="XMLID_14_" class="st0" d="M39.6,34.5l4.7,4.7c0.9,0.9,0.9,2.3,0,3.1L38,48.6c-0.9,0.9-2.3,0.9-3.1,0L23.6,37.3
		c-0.9-0.9-0.9-2.3,0-3.1l6.3-6.3c0.9-0.9,2.3-0.9,3.1,0l2,2"/>
	<path id="XMLID_13_" class="st0" d="M25.4,30.5l-4.7-4.7c-0.9-0.9-0.9-2.3,0-3.1l6.3-6.3c0.9-0.9,2.3-0.9,3.1,0l11.3,11.3
		c0.9,0.9,0.9,2.3,0,3.1l-6.3,6.3c-0.9,0.9-2.3,0.9-3.1,0l-2-2"/>
</g>
</svg>
