<?xml version="1.0" encoding="utf-8"?>
<!-- Generator: Adobe Illustrator 19.0.0, SVG Export Plug-In . SVG Version: 6.00 Build 0)  -->
<svg version="1.1" id="Layer_1" xmlns="http://www.w3.org/2000/svg" xmlns:xlink="http://www.w3.org/1999/xlink" x="0px" y="0px"
	 viewBox="-265 388.9 64 64" style="enable-background:new -265 388.9 64 64;" xml:space="preserve">
<style type="text/css">
	.st0{fill:none;stroke:#FFFFFF;stroke-miterlimit:10;}
	.st1{fill:#FFFFFF;}
	.st2{fill:none;stroke:#808285;stroke-miterlimit:10;}
</style>
<g id="XMLID_442_">
	<polyline id="XMLID_444_" class="st0" points="-229.3,429.9 -220.3,420.9 -229.3,411.9 	"/>
	<line id="XMLID_15_" class="st0" x1="-220.3" y1="420.9" x2="-245.7" y2="420.9"/>
</g>
<g>
	<path id="XMLID_1_" class="st1" d="M-256,395.9h46c1.1,0,2,0.9,2,2v46c0,1.1-0.9,2-2,2h-46c-1.1,0-2-0.9-2-2v-46
		C-258,396.8-257.1,395.9-256,395.9z"/>
	<path id="XMLID_10_" class="st2" d="M-256,395.9h46c1.1,0,2,0.9,2,2v46c0,1.1-0.9,2-2,2h-46c-1.1,0-2-0.9-2-2v-46
		C-258,396.8-257.1,395.9-256,395.9z"/>
	<g id="XMLID_3_">
		<g id="XMLID_5_">
			<path id="XMLID_8_" class="st2" d="M-227.8,407.3c-2.9,0-5.2,2.3-5.2,5.2c0-2.9-2.3-5.2-5.2-5.2"/>
			<path id="XMLID_7_" class="st2" d="M-227.8,434.5c-2.9,0-5.2-2.3-5.2-5.2c0,2.9-2.3,5.2-5.2,5.2"/>
			<line id="XMLID_6_" class="st2" x1="-233" y1="412.4" x2="-233" y2="429.3"/>
		</g>
		<line id="XMLID_4_" class="st2" x1="-234.5" y1="420.9" x2="-231.5" y2="420.9"/>
	</g>
</g>
</svg>
