<?xml version="1.0" encoding="utf-8"?>
<!-- Generator: Adobe Illustrator 19.0.0, SVG Export Plug-In . SVG Version: 6.00 Build 0)  -->
<svg version="1.1" id="Layer_1" xmlns="http://www.w3.org/2000/svg" xmlns:xlink="http://www.w3.org/1999/xlink" x="0px" y="0px"
	 viewBox="0 0 64 64" style="enable-background:new 0 0 64 64;" xml:space="preserve">
<style type="text/css">
	.st0{fill:none;stroke:#FFFFFF;stroke-linecap:round;stroke-linejoin:round;stroke-miterlimit:10;}
</style>
<g id="XMLID_1496_">
	<path id="XMLID_1504_" class="st0" d="M34,20.8c-0.4-0.5-0.8-0.9-1.2-1.3C33.2,19.9,33.6,20.4,34,20.8z"/>
	<path id="XMLID_1503_" class="st0" d="M33.7,36.6c-1.5,2.4-5,5.1-3.6,10.6c-4.8-2-14.4-7.6-5.5-18.1c4.9-4.8,6.4-9,5.7-11.8
		c-0.2-0.6-0.4-1.2-0.8-1.6c0.2,0.2,1.6,1.8,3.3,3.7c0.4,0.4,0.8,0.9,1.2,1.3C36.7,24.2,38.1,29.4,33.7,36.6z"/>
	<path id="XMLID_1499_" class="st0" d="M34,20.8c2.8,3.2,15.7,16.1,4.6,23.4c-2.1,1.4-5.1,4-5.8,4c-0.4,0-2.1-0.7-2.7-1"/>
</g>
</svg>
