<?xml version="1.0" encoding="utf-8"?>
<!-- Generator: Adobe Illustrator 19.0.0, SVG Export Plug-In . SVG Version: 6.00 Build 0)  -->
<svg version="1.1" id="Layer_1" xmlns="http://www.w3.org/2000/svg" xmlns:xlink="http://www.w3.org/1999/xlink" x="0px" y="0px"
	 viewBox="-307 388.9 132 32" style="enable-background:new -307 388.9 132 32;" xml:space="preserve">
<style type="text/css">
	.st0{fill:#58595B;}
	.st1{fill:#FFFFFF;}
</style>
<g id="XMLID_1473_">
	<rect id="XMLID_1949_" x="-245.2" y="395.2" class="st0" width="38.7" height="19.4"/>
	<g id="XMLID_1479_">
		<g>
			<path class="st0" d="M-288.7,411.3v-9.4l-3.4,7.4h-1.1l-3.4-7.4v9.4h-1.3V399h1.3l4,8.8l3.9-8.8h1.3v12.4H-288.7z"/>
			<path class="st0" d="M-283.8,411.3V399h7.7v1.2h-6.4v4.4h5.4v1.2h-5.4v4.5h6.4v1.2H-283.8z"/>
			<path class="st0" d="M-266.1,410.2c-0.7,0.7-1.8,1.1-3.1,1.1h-4.2V399h4.2c1.3,0,2.4,0.4,3.1,1.1c1.3,1.3,1.2,3.2,1.2,4.9
				C-264.9,406.7-264.8,408.9-266.1,410.2z M-267,401c-0.6-0.7-1.5-0.9-2.4-0.9h-2.7v10h2.7c1,0,1.8-0.2,2.4-0.9
				c0.9-0.9,0.8-2.7,0.8-4.2C-266.2,403.5-266.1,401.9-267,401z"/>
			<path class="st0" d="M-261.7,411.3V399h1.3v12.4H-261.7z"/>
			<path class="st0" d="M-249.7,411.3l-1-2.8h-5.4l-1,2.8h-1.4l4.5-12.4h1.1l4.5,12.4H-249.7z M-253.3,400.9l-2.3,6.5h4.6
				L-253.3,400.9z"/>
		</g>
		<g>
			<path class="st0" d="M-203.1,411.1v-12.4h7.7v1.2h-6.4v4.4h5.4v1.2h-5.4v4.5h6.4v1.2H-203.1z"/>
			<path class="st0" d="M-185.6,411.1l-2.8-5.5h-3v5.5h-1.3v-12.4h4.7c2.2,0,3.7,1.3,3.7,3.4c0,1.8-1.1,3-2.7,3.3l2.9,5.6H-185.6z
				 M-188,400h-3.3v4.5h3.3c1.4,0,2.5-0.7,2.5-2.3C-185.6,400.7-186.6,400-188,400z"/>
		</g>
		<g>
			<path class="st1" d="M-238.3,411.4c-1.9,0-3.1-0.5-4.2-1.6l0.9-0.9c1,1,2,1.4,3.4,1.4c1.8,0,2.9-0.9,2.9-2.3
				c0-0.6-0.2-1.2-0.6-1.5c-0.4-0.3-0.7-0.5-1.6-0.6l-1.4-0.2c-1-0.2-1.7-0.5-2.3-0.9c-0.6-0.6-0.9-1.3-0.9-2.3c0-2.1,1.5-3.5,4-3.5
				c1.6,0,2.6,0.4,3.7,1.4l-0.9,0.9c-0.8-0.7-1.6-1.1-2.9-1.1c-1.6,0-2.6,0.9-2.6,2.3c0,0.6,0.2,1.1,0.6,1.4c0.4,0.3,1,0.6,1.7,0.7
				l1.4,0.2c1.2,0.2,1.7,0.4,2.3,0.9c0.7,0.6,1,1.4,1,2.4C-234,410.1-235.7,411.4-238.3,411.4z"/>
			<path class="st1" d="M-231.2,411.3V399h1.3v12.4H-231.2z"/>
			<path class="st1" d="M-225,400.1v4.5h5.4v1.2h-5.4v5.4h-1.3V399h7.7v1.2H-225z"/>
			<path class="st1" d="M-212.7,400.1v11.2h-1.3v-11.2h-3.6V399h8.5v1.2H-212.7z"/>
		</g>
	</g>
</g>
</svg>
