<?xml version="1.0" encoding="utf-8"?>
<!-- Generator: Adobe Illustrator 19.0.0, SVG Export Plug-In . SVG Version: 6.00 Build 0)  -->
<svg version="1.1" id="Layer_1" xmlns="http://www.w3.org/2000/svg" xmlns:xlink="http://www.w3.org/1999/xlink" x="0px" y="0px"
	 viewBox="0 0 65 65" style="enable-background:new 0 0 65 65;" xml:space="preserve">
<style type="text/css">
	.st0{fill:none;stroke:#FFFFFF;stroke-linecap:round;stroke-linejoin:round;stroke-miterlimit:10;}
</style>
<g id="XMLID_2235_">
	<path id="XMLID_3413_" class="st0" d="M43.4,35.1c0,3.7-0.5,12.5-10.9,12.5c-10.4,0-10.9-8.8-10.9-12.5c0-2.1,2.3-3.9,4.9-5.2
		c0,0,0,0,0,0c0,0,0,0,0,0c0.7,2.6,3.1,4.4,5.9,4.4c2.8,0,5.2-1.9,5.9-4.4c0,0,0,0,0.1,0c0,0,0,0,0,0C41.1,31.1,43.4,33,43.4,35.1z"
		/>
	<path id="XMLID_319_" class="st0" d="M38.6,23.5v4.9c0,0.5-0.1,1-0.2,1.4c0,0,0,0,0,0c0,0,0,0-0.1,0c-0.7,2.6-3.1,4.4-5.9,4.4
		c-2.8,0-5.2-1.9-5.9-4.4c0,0,0,0,0,0c0,0,0,0,0,0c-0.1-0.5-0.2-0.9-0.2-1.4v-4.9c0-0.6,0.1-1.2,0.2-1.7c0,0,0,0,0,0
		c0.4-1.3,1.3-2.5,2.4-3.3c1-0.7,2.2-1.1,3.5-1.1c1.3,0,2.5,0.4,3.5,1.1c1.1,0.8,2,1.9,2.4,3.3c0,0,0,0,0,0
		C38.5,22.3,38.6,22.9,38.6,23.5z"/>
</g>
</svg>
